<?xml version="1.0" encoding="UTF-8"?>
<svg version="1.1" xmlns="http://www.w3.org/2000/svg" width="256" height="256">
<path d="M0 0 C0.74338529 0.00071251 1.48677057 0.00142502 2.25268269 0.00215912 C3.10875614 -0.00904968 3.9648296 -0.02025848 4.84684467 -0.03180695 C6.25167606 -0.01191208 6.25167606 -0.01191208 7.68488789 0.0083847 C8.67399662 0.00283569 9.66310535 -0.00271332 10.68218708 -0.00843048 C13.9658824 -0.02027752 17.24821183 0.00412255 20.53181171 0.02986908 C22.82089901 0.03158063 25.10998826 0.03151405 27.39907551 0.02974701 C32.21035609 0.03140377 37.0211728 0.05015027 41.83234882 0.08162689 C47.95938007 0.12101473 54.0857952 0.1257079 60.21292877 0.11816406 C64.94973984 0.11507064 69.68641598 0.12730333 74.42319393 0.14429474 C76.6791146 0.15126757 78.93505058 0.15445631 81.19098186 0.1536026 C104.26804383 0.16685539 127.15761194 2.14300268 144.80134296 18.87361908 C156.63370935 31.35290497 160.62862588 46.3235329 160.32478046 63.16268158 C159.8370512 74.40942857 155.68263804 83.68009612 149.05134296 92.62361908 C148.44806171 93.4511972 147.84478046 94.27877533 147.22321796 95.13143158 C144.7077875 98.0178428 141.89127609 100.21476764 138.80134296 102.43611908 C138.24704609 102.8428183 137.69274921 103.24951752 137.12165546 103.66854095 C135.76923843 104.65953619 134.41089389 105.64243374 133.05134296 106.62361908 C133.92274921 107.00131439 134.79415546 107.3790097 135.69196796 107.76815033 C148.55174777 113.71092736 158.78646358 121.53002116 165.05134296 134.62361908 C165.43806171 135.40092377 165.82478046 136.17822845 166.22321796 136.97908783 C172.92386635 151.86132501 172.22011136 169.38081974 167.05134296 184.62361908 C163.56254941 193.41851988 158.74794504 199.99641184 152.05134296 206.62361908 C151.45966328 207.24881439 150.86798359 207.8740097 150.25837421 208.51815033 C135.87233317 222.58661872 113.7897086 226.73175324 94.48200703 226.81649017 C93.44217167 226.82466766 92.40233631 226.83284515 91.33099079 226.84127045 C87.90965558 226.86597232 84.48836112 226.8825923 81.06696796 226.89705658 C79.89664776 226.90238026 78.72632755 226.90770393 77.5205431 226.91318893 C71.3379453 226.93984128 65.15536725 226.95925011 58.97272968 226.97371674 C53.85113085 226.98710803 48.72992552 227.0150673 43.60847187 227.05574799 C37.42121698 227.10488721 31.23432149 227.12981287 25.04687977 227.13694382 C22.68805987 227.1436777 20.32924868 227.15895469 17.97054005 227.18283463 C14.68096072 227.21426646 11.39278927 227.214557 8.10310078 227.20711517 C7.1243549 227.22352051 6.14560902 227.23992584 5.13720417 227.25682831 C3.79572063 227.24435059 3.79572063 227.24435059 2.42713642 227.23162079 C1.26133989 227.23658601 1.26133989 227.23658601 0.07199192 227.24165154 C-1.94865704 226.62361908 -1.94865704 226.62361908 -3.69833469 224.63360786 C-5.33917052 220.68350854 -5.3638278 217.06143013 -5.32960796 212.85579681 C-5.33428794 211.97300521 -5.33896791 211.0902136 -5.3437897 210.18067074 C-5.35575534 207.2226986 -5.34627626 204.26518841 -5.33684063 201.30721283 C-5.34090563 199.1865334 -5.3462471 197.06585609 -5.35277081 194.9451828 C-5.36645868 189.18494356 -5.36113962 183.42486535 -5.35163355 177.66462326 C-5.34404462 171.63980166 -5.35108043 165.61499395 -5.35579205 159.59017181 C-5.36125182 149.47206392 -5.35405212 139.35402169 -5.33977032 129.23592377 C-5.32344342 117.53373038 -5.32873177 105.83169379 -5.34524953 94.1295042 C-5.35885803 84.08693187 -5.36078716 74.04440677 -5.35293353 64.00182819 C-5.34825353 58.00178011 -5.34764118 52.00180575 -5.35754299 46.00176239 C-5.36620108 40.36123429 -5.36021178 34.72090859 -5.34286022 29.08040237 C-5.33888921 27.00875307 -5.3400399 24.93708676 -5.34664822 22.86544418 C-5.35482938 20.04054563 -5.34458347 17.21629826 -5.32960796 14.39144135 C-5.33630013 13.56897132 -5.34299229 12.74650129 -5.34988725 11.89910793 C-5.24457887 1.67839665 -5.24457887 1.67839665 0 0 Z M7.05134296 11.62361908 C7.05134296 78.94361908 7.05134296 146.26361908 7.05134296 215.62361908 C75.65707554 222.57893743 75.65707554 222.57893743 145.23884296 197.99861908 C155.91835294 186.62731898 159.58569686 173.5811387 159.47126484 158.34578705 C159.02799539 144.89142264 154.05235929 134.02987684 144.23884296 124.81111908 C136.93547259 118.87364622 129.01072184 116.06515432 119.96516132 113.96663666 C118.31318843 113.57390025 116.67975684 113.10478911 115.05134296 112.62361908 C113.49195318 109.50483952 113.69055957 107.05106136 114.05134296 103.62361908 C117.40348717 101.21710687 121.13328392 99.61422068 124.86384296 97.87361908 C136.78945011 91.90349919 143.1509963 83.78792761 147.42634296 71.18611908 C150.86330785 58.90508138 149.10208083 47.33751158 143.48884296 35.93611908 C136.50616701 24.02954142 124.89716437 17.25825595 111.80134296 13.81111908 C77.78851549 5.88440081 41.97562241 11.62361908 7.05134296 11.62361908 Z " fill="#000000" transform="translate(44.94865703582764,14.376380920410156)"/>
<path d="M0 0 C1.03893402 -0.00938095 2.07786804 -0.0187619 3.14828491 -0.02842712 C4.27320343 -0.01719315 5.39812195 -0.00595917 6.55712891 0.00561523 C7.72063873 0.00416 8.88414856 0.00270477 10.08291626 0.00120544 C12.55269871 0.00286776 15.02249116 0.01446585 17.4921875 0.03515625 C21.23434731 0.06383088 24.97506535 0.05582658 28.71728516 0.04272461 C31.12223985 0.04897096 33.52719011 0.05736885 35.93212891 0.06811523 C37.58914322 0.06371178 37.58914322 0.06371178 39.27963257 0.05921936 C52.34723432 0.21406158 65.16674702 2.6981821 75.22900391 11.54077148 C83.19871158 19.86338134 86.02454269 29.09035789 85.90869141 40.50170898 C85.15390161 51.1226797 81.90208094 60.65283388 73.90869141 67.97436523 C63.0913652 76.23525302 50.04288262 77.96962591 36.81103516 77.93530273 C35.01600304 77.94316551 35.01600304 77.94316551 33.18470764 77.95118713 C30.67970552 77.9575628 28.17467329 77.95632878 25.66967773 77.94775391 C21.82499054 77.9391616 17.98175101 77.9682011 14.13720703 77.99975586 C11.69515018 78.00136601 9.2530907 78.00079391 6.81103516 77.99780273 C5.08614113 78.0146537 5.08614113 78.0146537 3.32640076 78.03184509 C2.26421829 78.02246414 1.20203583 78.01308319 0.10766602 78.00341797 C-1.29365318 78.00316872 -1.29365318 78.00316872 -2.72328186 78.00291443 C-5.09130859 77.50170898 -5.09130859 77.50170898 -6.89198303 75.89064026 C-8.48377425 72.71995838 -8.47246686 70.3234394 -8.47949219 66.77709961 C-8.48474915 66.10994431 -8.4900061 65.442789 -8.49542236 64.75541687 C-8.5085972 62.55602419 -8.49989385 60.35735869 -8.48974609 58.15795898 C-8.49176757 56.62625998 -8.49467962 55.09456192 -8.4984436 53.56286621 C-8.50286352 50.35504988 -8.4964468 47.14748441 -8.48242188 43.93969727 C-8.46532993 39.83040651 -8.47517292 35.72170358 -8.49313927 31.61243439 C-8.50398622 28.45025208 -8.50052663 25.28820886 -8.49275589 22.12602234 C-8.49075639 20.61097646 -8.49320438 19.09591791 -8.50019455 17.58088684 C-8.50782435 15.4623577 -8.49618492 13.34477696 -8.47949219 11.22631836 C-8.47710541 10.02148804 -8.47471863 8.81665771 -8.47225952 7.57531738 C-7.76076313 1.83478464 -5.69777363 0.00103652 0 0 Z M3.90869141 11.50170898 C3.90869141 29.65170898 3.90869141 47.80170898 3.90869141 66.50170898 C10.75619141 66.56358398 17.60369141 66.62545898 24.65869141 66.68920898 C27.86217285 66.730177 27.86217285 66.730177 31.13037109 66.77197266 C44.33016063 66.87146265 57.58561479 66.95925157 67.90869141 57.50170898 C74.27756919 49.4375184 74.6238482 41.46282144 73.90869141 31.50170898 C72.55462037 25.70204328 69.73257895 21.42864759 65.03369141 17.78295898 C56.01220914 12.34353585 46.41837202 11.34400878 36.13525391 11.40405273 C35.31565186 11.40505981 34.4960498 11.40606689 33.65161133 11.40710449 C30.6122903 11.4123064 27.57298933 11.42626752 24.53369141 11.43920898 C17.72744141 11.45983398 10.92119141 11.48045898 3.90869141 11.50170898 Z " fill="#000000" transform="translate(89.09130859375,132.498291015625)"/>
<path d="M0 0 C0.96853409 -0.00938095 1.93706818 -0.0187619 2.93495178 -0.02842712 C4.50520363 -0.01157616 4.50520363 -0.01157616 6.10717773 0.00561523 C7.1890184 0.00416 8.27085907 0.00270477 9.38548279 0.00120544 C11.67954188 0.00286711 13.97361181 0.01445809 16.26757812 0.03515625 C19.75301477 0.06389764 23.23691006 0.05581222 26.72241211 0.04272461 C28.9548413 0.04896882 31.1872657 0.05736506 33.41967773 0.06811523 C34.45234268 0.0651796 35.48500763 0.06224396 36.54896545 0.05921936 C47.79588467 0.20323106 58.86961998 3.15670266 67.04858398 11.31811523 C68.64563045 13.30439162 69.95557434 15.29437488 71.22827148 17.50170898 C71.64077148 18.20682617 72.05327148 18.91194336 72.47827148 19.63842773 C76.97585493 28.83661054 76.7701362 40.84650447 73.72827148 50.50170898 C70.13268115 58.77408116 64.336682 64.90346628 56.00488281 68.42089844 C44.36895301 72.95024524 33.18758789 72.9987561 20.83447266 72.94775391 C17.64153605 72.93914363 14.45033346 72.9682459 11.25756836 72.99975586 C9.22566785 73.00136566 7.19376418 73.00079458 5.16186523 72.99780273 C4.2087999 73.00903671 3.25573456 73.02027069 2.27378845 73.03184509 C1.39179276 73.02246414 0.50979706 73.01308319 -0.39892578 73.00341797 C-1.17325455 73.0032518 -1.94758331 73.00308563 -2.74537659 73.00291443 C-4.77172852 72.50170898 -4.77172852 72.50170898 -6.52076721 70.86195374 C-8.1299027 67.8259257 -8.15256996 65.66911042 -8.15991211 62.23608398 C-8.16936859 60.96796875 -8.17882507 59.69985352 -8.18856812 58.39331055 C-8.18319825 57.01277351 -8.17704526 55.63223933 -8.17016602 54.25170898 C-8.17218773 52.83211111 -8.17509998 51.41251425 -8.17886353 49.99291992 C-8.18328233 47.02048842 -8.17687042 44.04832772 -8.1628418 41.07592773 C-8.14574978 37.26929162 -8.15559339 33.46329008 -8.17355919 29.65667725 C-8.18440923 26.72610712 -8.18094517 23.79568699 -8.17317581 20.8651123 C-8.17117716 19.46170984 -8.17362133 18.05829369 -8.18061447 16.65490723 C-8.18824808 14.69238553 -8.17454656 12.72981597 -8.15991211 10.76733398 C-8.15752533 9.65132812 -8.15513855 8.53532227 -8.15267944 7.38549805 C-7.43836158 1.97812955 -5.40293956 0.00105447 0 0 Z M4.22827148 11.50170898 C4.22827148 28.00170898 4.22827148 44.50170898 4.22827148 61.50170898 C9.59077148 61.56358398 14.95327148 61.62545898 20.47827148 61.68920898 C22.1440625 61.716521 23.80985352 61.74383301 25.52612305 61.77197266 C37.7147577 61.88916763 49.76768187 61.14051009 59.22827148 52.50170898 C64.46137301 45.65506782 64.76788268 38.80748914 64.22827148 30.50170898 C63.23496609 24.11617432 59.71989827 20.53405909 55.06811523 16.26342773 C45.09299768 10.07528741 33.90319377 11.15115997 22.60327148 11.31420898 C13.50764648 11.40702148 13.50764648 11.40702148 4.22827148 11.50170898 Z " fill="#000000" transform="translate(88.771728515625,45.498291015625)"/>
</svg>
